<svg width="98" height="33" viewBox="0 0 98 33" fill="none" xmlns="http://www.w3.org/2000/svg">
<path d="M41 27L47.84 8.34C48.18 7.44 48.71 6.77 49.43 6.33C50.17 5.87 51 5.64 51.92 5.64C52.84 5.64 53.67 5.86 54.41 6.3C55.15 6.72 55.68 7.39 56 8.31L62.87 27H58.16L56.75 22.77H46.97L45.5 27H41ZM48.26 18.99H55.49L52.46 9.78C52.42 9.64 52.35 9.54 52.25 9.48C52.17 9.42 52.07 9.39 51.95 9.39C51.83 9.39 51.73 9.43 51.65 9.51C51.57 9.57 51.51 9.66 51.47 9.78L48.26 18.99ZM71.9755 27.36C70.6955 27.36 69.5455 27.16 68.5255 26.76C67.5255 26.34 66.6855 25.76 66.0055 25.02C65.3255 24.26 64.8055 23.38 64.4455 22.38C64.0855 21.36 63.9055 20.25 63.9055 19.05C63.9055 17.53 64.2055 16.2 64.8055 15.06C65.4255 13.9 66.2855 12.99 67.3855 12.33C68.5055 11.67 69.8055 11.34 71.2855 11.34C71.9255 11.34 72.5355 11.43 73.1155 11.61C73.7155 11.79 74.2555 12.05 74.7355 12.39C75.2155 12.73 75.6055 13.13 75.9055 13.59H75.9355V5.1H80.0455V19.05C80.0455 20.73 79.7155 22.2 79.0555 23.46C78.3955 24.7 77.4655 25.66 76.2655 26.34C75.0655 27.02 73.6355 27.36 71.9755 27.36ZM71.9755 23.85C72.7955 23.85 73.4955 23.65 74.0755 23.25C74.6555 22.85 75.0955 22.31 75.3955 21.63C75.7155 20.95 75.8755 20.19 75.8755 19.35C75.8755 18.51 75.7155 17.75 75.3955 17.07C75.0955 16.39 74.6555 15.85 74.0755 15.45C73.4955 15.05 72.7955 14.85 71.9755 14.85C71.1755 14.85 70.4755 15.05 69.8755 15.45C69.2955 15.85 68.8455 16.39 68.5255 17.07C68.2255 17.75 68.0755 18.51 68.0755 19.35C68.0755 20.19 68.2255 20.95 68.5255 21.63C68.8455 22.31 69.2955 22.85 69.8755 23.25C70.4755 23.65 71.1755 23.85 71.9755 23.85ZM83.7898 27V5.1H87.8998V27H83.7898ZM91.7879 27V11.7H95.9279V27H91.7879ZM93.8579 9.87C93.1579 9.87 92.5479 9.62 92.0279 9.12C91.5279 8.6 91.2779 7.99 91.2779 7.29C91.2779 6.59 91.5279 5.99 92.0279 5.49C92.5479 4.97 93.1579 4.71 93.8579 4.71C94.5579 4.71 95.1579 4.97 95.6579 5.49C96.1779 5.99 96.4379 6.59 96.4379 7.29C96.4379 7.99 96.1779 8.6 95.6579 9.12C95.1579 9.62 94.5579 9.87 93.8579 9.87Z" fill="white"/>
<path d="M25.9793 23.0857C25.0667 24.4867 23.8661 25.6773 22.4574 26.5781L16.3247 13.0479L10.0023 26.6529L7.57967 31.8391L7.43598 32.1394H2.43555L3.92131 29.0563L6.60976 23.4822L14.0529 8.04559H18.9384L25.9793 23.0857Z" fill="#EF3F4F"/>
<path d="M30.2152 32.1394H24.982L24.8225 31.7889C26.2318 30.9763 27.5215 29.9721 28.6547 28.805L30.2152 32.1394Z" fill="#EF3F4F"/>
<path d="M33 16.5002C33.0048 20.4005 31.6191 24.1747 29.0916 27.1456C28.0736 28.3528 26.8876 29.4075 25.5697 30.2775C25.508 30.3206 25.4462 30.3623 25.3858 30.4011C22.9651 31.9507 20.1809 32.84 17.31 32.9803C14.439 33.1207 11.5813 32.5074 9.0209 31.2013L10.6561 27.693C12.437 28.6253 14.415 29.1182 16.4252 29.1307C18.4354 29.1432 20.4194 28.6749 22.2117 27.7648C22.5872 27.5745 22.9527 27.3649 23.3066 27.137C23.3454 27.114 23.3842 27.0867 23.423 27.0623C25.5047 25.7003 27.138 23.7543 28.1181 21.4681C29.0982 19.182 29.3816 16.6574 28.9326 14.2109C28.4836 11.7644 27.3224 9.50483 25.5943 7.71545C23.8663 5.92607 21.6484 4.68649 19.2187 4.15211C16.789 3.61773 14.2555 3.81232 11.936 4.71149C9.6164 5.61066 7.61391 7.1744 6.17953 9.20668C4.74515 11.239 3.94269 13.6494 3.87276 16.1357C3.80283 18.6221 4.46853 21.0737 5.78642 23.1834L3.85809 27.0982C2.15348 25.0663 0.963973 22.6534 0.390386 20.0641C-0.183202 17.4748 -0.123957 14.7854 0.563097 12.2239C1.25015 9.66236 2.54476 7.30419 4.3372 5.34926C6.12963 3.39433 8.36706 1.90028 10.8598 0.993735C13.3526 0.0871905 16.0272 -0.205122 18.657 0.141575C21.2868 0.488271 23.7942 1.46376 25.9667 2.98535C28.1393 4.50694 29.9129 6.52979 31.1372 8.88243C32.3615 11.2351 33.0005 13.8482 33 16.5002Z" fill="white"/>
</svg>
